<?xml version="1.0" ?><svg data-name="Layer 1" id="Layer_1" viewBox="0 0 32 32" xmlns="http://www.w3.org/2000/svg"><path d="M29,2H7A1,1,0,0,0,6,3V6H3A1,1,0,0,0,2,7V29a1.14,1.14,0,0,0,.07.32l0,.08,0,.07a1.12,1.12,0,0,0,.16.22h0a1,1,0,0,0,.27.19l.08,0A1,1,0,0,0,3,30H25a1,1,0,0,0,.35-.07l.07,0a.92.92,0,0,0,.28-.19l0,0a1.24,1.24,0,0,0,.14-.18l0-.08a.3.3,0,0,0,0-.08A1,1,0,0,0,26,29h0V26h3a1,1,0,0,0,1-1V3A1,1,0,0,0,29,2ZM7,8H24V25l-5.12-9.5A1,1,0,0,0,18,15h0a1,1,0,0,0-.88.52l-1.6,2.95-2.64-4.94A1,1,0,0,0,12,13a1,1,0,0,0-.89.49L4,25.39V8ZM12,16l2.62,4.91a.35.35,0,0,0,0,.13L18.33,28H4.77ZM20.6,28l-4-7.41L18,18.1,23.33,28ZM28,24H26V7a1,1,0,0,0-1-1H8V4H28Z"/></svg>